<svg xmlns="http://www.w3.org/2000/svg" viewBox="0 0 197.81 81.56"><defs><style>.cls-1,.cls-2{fill:#1d8cc1;}.cls-2{font-size:61.32px;font-family:Labora;}.cls-3{fill:#6a7178;}</style></defs><g id="Layer_2" data-name="Layer 2"><g id="Layer_1-2" data-name="Layer 1"><path class="cls-1" d="M36.11,48.16A10.71,10.71,0,0,1,46.64,37.3H61a10.23,10.23,0,0,1,2.36.28V18.87C63.31,8.45,55.11,0,45,0H18.31C8.2,0,0,8.45,0,18.87V46.36C0,56.78,8.2,65.23,18.31,65.23H36.36a10.53,10.53,0,0,1-.25-2.33Zm-4.45-6.92a8.7,8.7,0,0,1-2.46,6.09,8.18,8.18,0,0,1-11.83,0,8.73,8.73,0,0,1-2.45-6.09V24a8.5,8.5,0,0,1,8.37-8.62H40A8.5,8.5,0,0,1,48.39,24a8.73,8.73,0,0,1-2.45,6.09A8.24,8.24,0,0,1,40,32.62,8.49,8.49,0,0,0,31.66,41.24Z"/><text class="cls-2" transform="translate(71.95 68.01)">li<tspan class="cls-3" x="26.43" y="0">n</tspan><tspan x="58.86" y="0">es</tspan></text><path class="cls-3" d="M63,40a8.31,8.31,0,0,0-2.36-.34H46.34A8.3,8.3,0,0,0,38.05,48v14.3a8.46,8.46,0,0,0,.31,2.27,8.31,8.31,0,0,0,8,6h14.3a8.31,8.31,0,0,0,8.3-8.3V48A8.31,8.31,0,0,0,63,40Z"/></g></g></svg>